<svg width="69" height="26" viewBox="0 0 69 26" fill="none" xmlns="http://www.w3.org/2000/svg">
<path d="M10.7554 5.6162C11.5323 5.36711 12.361 5.23426 13.2207 5.23426C16.9842 5.23426 20.1262 7.80489 20.8444 11.2224L26.1789 10.1762C24.9567 4.37074 19.6187 0 13.2207 0C11.7533 0 10.348 0.229165 9.02905 0.654282L10.7554 5.6162Z" fill="#F3F1EA"/>
<path d="M4.46097 22.2424L8.06911 18.32C6.46013 16.9483 5.44501 14.9456 5.44501 12.7138C5.44501 10.4852 6.46013 8.48252 8.06911 7.11417L4.46097 3.18848C1.72638 5.51998 0 8.92424 0 12.7138C0 16.5066 1.72638 19.9109 4.46097 22.2424" fill="#E0EDF1"/>
<path d="M20.8444 14.2148C20.1228 17.6291 16.9842 20.1964 13.2242 20.1964C12.361 20.1964 11.5289 20.0635 10.7554 19.8111L9.02905 24.7797C10.348 25.2015 11.7567 25.4306 13.2242 25.4306C19.6152 25.4306 24.9498 21.0665 26.1789 15.2677L20.8444 14.2148Z" fill="#F1E5E3"/>
<path d="M30.8436 18.4826C30.6675 18.2103 30.4327 17.7752 30.2877 17.4531C29.4418 15.5666 29.4038 13.6137 30.115 11.7405C30.8988 9.6847 32.3973 8.11376 34.3343 7.31002C36.7685 6.30369 39.4582 6.49964 41.7923 7.83145C43.2735 8.64848 44.3232 9.91054 45.1208 11.6974C45.2209 11.9265 45.3107 12.169 45.4004 12.3782L30.8436 18.4826ZM35.7051 10.3423C33.9752 11.0564 33.0844 12.6173 33.2709 14.444L40.5907 11.4117C39.3305 9.99025 37.6939 9.51864 35.7051 10.3423V10.3423ZM41.5023 16.9383C41.4988 16.9383 41.4988 16.9416 41.4988 16.9416L41.3469 16.842C40.9084 17.5228 40.2282 18.0774 39.3685 18.4361C37.7319 19.1203 36.2161 18.9443 35.125 18.0243L35.0249 18.1704C35.0249 18.1704 35.0249 18.1671 35.0214 18.1671L33.1638 20.8407C33.6265 21.1496 34.1203 21.4086 34.6382 21.6179C36.6891 22.4382 38.7884 22.3984 40.8566 21.5348C42.3516 20.9105 43.5256 19.9606 44.3266 18.755L41.5023 16.9383ZM50.4864 3.37769V18.2369L52.8895 19.1735L51.5256 22.2356L48.8739 21.1728C48.28 20.9237 47.8726 20.5451 47.5688 20.1167C47.2753 19.6816 47.0578 19.0805 47.0578 18.2767V3.37769H50.4864ZM56.7082 14.454C56.7082 13.1886 57.2918 12.0527 58.2102 11.2822L55.7449 8.63851C54.0738 10.06 53.0207 12.1358 53.0207 14.4473C53.0172 16.7622 54.0703 18.8413 55.738 20.2628L58.1998 17.6191C57.2849 16.8453 56.7082 15.7161 56.7082 14.454V14.454ZM61.0864 18.6686C60.603 18.6686 60.1334 18.5889 59.6983 18.4494L58.521 21.8138C59.3254 22.0729 60.1852 22.2157 61.0829 22.2157C64.9845 22.219 68.2405 19.5554 68.9966 16.0183L65.3781 15.3075C64.9673 17.2305 63.2029 18.6719 61.0864 18.6686V18.6686ZM61.0967 6.69227C60.2024 6.69227 59.3427 6.83176 58.5382 7.0875L59.7053 10.4552C60.1438 10.3157 60.6099 10.2393 61.0933 10.2393C63.2133 10.2427 64.9811 11.6907 65.3816 13.617L69.0001 12.9129C68.2578 9.36918 65.0018 6.69559 61.0967 6.69227V6.69227Z" fill="white"/>
</svg>
